<svg width="108.8px" height="180.79999999999998px" xmlns="http://www.w3.org/2000/svg" viewBox="195.6 -15.399999999999991 108.8 180.79999999999998" style="background: rgba(0, 0, 0, 0);" preserveAspectRatio="xMidYMid"><defs><linearGradient id="editing-gradient-gradient" x1="0" x2="1" y1="0.5" y2="0.5" gradientUnits="objectBoundingBox"><stop offset="0" stop-color="#f0f"></stop><stop offset="1" stop-color="#0ff"></stop></linearGradient></defs><g><g transform="translate(220.31443786621094, 98.0280647277832)"><path d="M47.38-2.88L47.38-2.88L47.38-2.88Q47.38-6.50 48.34-10.22L48.34-10.22L48.34-10.22Q49.31-13.94 50.78-17.56L50.78-17.56L50.78-17.56Q52.25-21.19 53.94-24.59L53.94-24.59L53.94-24.59Q55.63-28 57.13-31L57.13-31L57.13-31.81L57.13-31.81Q56.44-31.06 54.97-29.47L54.97-29.47L54.97-29.47Q53.50-27.88 51.66-25.88L51.66-25.88L51.66-25.88Q49.81-23.88 47.78-21.66L47.78-21.66L47.78-21.66Q45.75-19.44 43.91-17.44L43.91-17.44L43.91-17.44Q42.06-15.44 40.63-13.84L40.63-13.84L40.63-13.84Q39.19-12.25 38.50-11.50L38.50-11.50L38.50-11.50Q37.81-10.75 37.19-9.28L37.19-9.28L37.19-9.28Q36.56-7.81 35.81-6.31L35.81-6.31L35.81-6.31Q35.06-4.81 34.16-3.69L34.16-3.69L34.16-3.69Q33.25-2.56 32.13-2.56L32.13-2.56L32.13-2.56Q31.19-2.56 30.66-2.75L30.66-2.75L30.66-2.75Q30.13-2.94 29.88-3.34L29.88-3.34L29.88-3.34Q29.63-3.75 29.56-4.38L29.56-4.38L29.56-4.38Q29.50-5 29.50-5.88L29.50-5.88L29.50-5.88Q29.50-10.50 30.84-14.84L30.84-14.84L30.84-14.84Q32.19-19.19 33.69-23.69L33.69-23.69L33.69-24.50L33.69-24.50Q33.56-24.38 33.25-24.09L33.25-24.09L33.25-24.09Q32.94-23.81 32.88-23.69L32.88-23.69L32.88-23.69Q31.38-21.44 29.81-18.84L29.81-18.84L29.81-18.84Q28.25-16.25 26.56-13.72L26.56-13.72L26.56-13.72Q24.88-11.19 22.94-8.88L22.94-8.88L22.94-8.88Q21-6.56 18.75-4.78L18.75-4.78L18.75-4.78Q16.50-3 13.84-1.94L13.84-1.94L13.84-1.94Q11.19-0.88 8-0.88L8-0.88L8-0.88Q7.31-0.88 6.16-0.94L6.16-0.94L6.16-0.94Q5-1 3.91-1.31L3.91-1.31L3.91-1.31Q2.81-1.63 2.03-2.31L2.03-2.31L2.03-2.31Q1.25-3 1.25-4.25L1.25-4.25L1.25-4.25Q1.25-4.75 1.84-5.53L1.84-5.53L1.84-5.53Q2.44-6.31 2.88-6.63L2.88-6.63L2.88-6.63Q3.75-5.19 4.34-4.72L4.34-4.72L4.34-4.72Q4.94-4.25 6.06-4.25L6.06-4.25L6.06-4.25Q7.94-4.25 10.03-4.84L10.03-4.84L10.03-4.84Q12.13-5.44 14.09-6.44L14.09-6.44L14.09-6.44Q16.06-7.44 17.81-8.75L17.81-8.75L17.81-8.75Q19.56-10.06 20.75-11.50L20.75-11.50L20.75-11.50Q21.69-12.75 23.03-14.72L23.03-14.72L23.03-14.72Q24.38-16.69 25.91-19.03L25.91-19.03L25.91-19.03Q27.44-21.38 29.06-23.81L29.06-23.81L29.06-23.81Q30.69-26.25 32.22-28.47L32.22-28.47L32.22-28.47Q33.75-30.69 35.06-32.44L35.06-32.44L35.06-32.44Q36.38-34.19 37.31-35.06L37.31-35.06L37.31-35.06Q38.19-35.06 38.63-34.78L38.63-34.78L38.63-34.78Q39.06-34.50 39.25-34L39.25-34L39.25-34Q39.44-33.50 39.44-32.81L39.44-32.81L39.44-32.81Q39.44-32.13 39.44-31.38L39.44-31.38L39.44-31.38Q39.44-28.75 38.66-26.25L38.66-26.25L38.66-26.25Q37.88-23.75 36.94-21.41L36.94-21.41L36.94-21.41Q36-19.06 35.22-16.81L35.22-16.81L35.22-16.81Q34.44-14.56 34.44-12.38L34.44-12.38L34.44-12.38Q34.44-12.25 34.47-11.94L34.47-11.94L34.47-11.94Q34.50-11.63 34.50-11.50L34.50-11.50L34.50-11.50Q40.38-18 44.63-22.75L44.63-22.75L44.63-22.75Q48.88-27.50 51.84-30.84L51.84-30.84L51.84-30.84Q54.81-34.19 56.69-36.28L56.69-36.28L56.69-36.28Q58.56-38.38 59.69-39.53L59.69-39.53L59.69-39.53Q60.81-40.69 61.41-41.13L61.41-41.13L61.41-41.13Q62-41.56 62.38-41.56L62.38-41.56L62.38-41.56Q63-41.56 63.31-41.19L63.31-41.19L63.31-41.19Q63.63-40.81 63.72-40.31L63.72-40.31L63.72-40.31Q63.81-39.81 63.78-39.25L63.78-39.25L63.78-39.25Q63.75-38.69 63.75-38.31L63.75-38.31L63.75-38.31Q63.75-35.69 62.78-32.97L62.78-32.97L62.78-32.97Q61.81-30.25 60.34-27.41L60.34-27.41L60.34-27.41Q58.88-24.56 57.16-21.66L57.16-21.66L57.16-21.66Q55.44-18.75 53.97-15.69L53.97-15.69L53.97-15.69Q52.50-12.63 51.53-9.47L51.53-9.47L51.53-9.47Q50.56-6.31 50.56-3L50.56-3L50.56-3Q50.56-1.31 50.63-0.53L50.63-0.53L50.63-0.53Q50.69 0.25 51 0.78L51 0.78L51 0.78Q51.31 1.31 52 1.91L52 1.91L52 1.91Q52.69 2.50 53.94 3.81L53.94 3.81L53.94 3.81Q52.50 4.63 51.16 4.47L51.16 4.47L51.16 4.47Q49.81 4.31 48.84 3.38L48.84 3.38L48.84 3.38Q47.88 2.44 47.44 0.81L47.44 0.81L47.44 0.81Q47-0.81 47.38-2.88Z" fill="url(#editing-gradient-gradient)"></path></g></g><style>text {
  font-size: 64px;
  font-family: Arial Black;
  dominant-baseline: central;
  text-anchor: middle;
}</style></svg>